<?xml version="1.0" encoding="iso-8859-1"?>
<!-- Generator: Adobe Illustrator 19.0.0, SVG Export Plug-In . SVG Version: 6.00 Build 0)  -->
<svg version="1.1" id="Layer_1" xmlns="http://www.w3.org/2000/svg" xmlns:xlink="http://www.w3.org/1999/xlink" x="0px" y="0px"
	 viewBox="0 0 511.999 511.999" style="enable-background:new 0 0 511.999 511.999;" xml:space="preserve">
<path style="fill:#A4E7FF;" d="M432.631,439.003v-43.026c0-31.693-17.532-59.286-43.434-73.597
	c-5.831-3.22-12.081-5.771-18.652-7.541c-7.001-1.9-14.361-2.91-21.962-2.91H320.27c-0.51-0.83-1.02-1.68-1.51-2.55
	c-4.24,16.062-14.501,29.673-28.223,38.284c-9.951,6.241-21.722,9.845-34.333,9.845c-12.611,0-24.382-3.614-34.333-9.855
	c-1.89-1.18-3.7-2.46-5.451-3.82c-10.971-8.571-19.102-20.602-22.772-34.453c-0.49,0.87-1,1.72-1.51,2.55h-28.313
	c-7.601,0-14.961,1.01-21.962,2.91c-6.571,1.77-12.821,4.32-18.652,7.541c-25.902,14.311-43.434,41.904-43.434,73.597v43.026h61.814
	l-0.138,62.995l228.288,0.001l0.41-62.995L432.631,439.003z"/>
<g>
	<polygon style="fill:#EDC891;" points="432.631,439.003 370.151,439.003 370.013,501.998 432.221,501.998 	"/>
	<polygon style="fill:#EDC891;" points="79.777,439.003 79.367,501.998 141.453,501.998 141.591,439.003 	"/>
</g>
<path style="fill:#9B6738;" d="M370.323,129.962c-0.479-3.662-1.256-48.995-2.421-52.415
	c-17.378-51.042-59.663-42.744-59.663-42.744S258.204-1.05,235.165,13.438c-34.179,21.494-52.613,15.166-75.949,20.792
	c-17.255,4.159-18.623,72.276-16.217,95.732l144.883-9.752l25.002-32.586l28.67,32.586L370.323,129.962z"/>
<g>
	<path style="fill:#EDC891;" d="M356.219,141.008c-0.167-0.063-0.336-6.875-0.506-15.999l-14.157-4.799l-28.67-32.586
		l-25.002,32.586l-131.265,8.835c-0.144,7.025-0.286,11.909-0.428,11.963c-7.603,2.88-9.771,15.758-4.844,28.762
		c3.101,8.185,8.274,14.465,13.577,17.282c1.953,7.045,4.217,13.008,6.611,17.428c13.756,25.397,44.454,59.266,84.673,59.266
		c40.211,0,70.906-33.868,84.665-59.266c2.393-4.418,4.657-10.382,6.611-17.426c5.305-2.815,10.479-9.097,13.58-17.283
		C365.99,156.766,363.82,143.889,356.219,141.008z"/>
	<path style="fill:#EDC891;" d="M256.204,357.507L256.204,357.507c30.011,0.009,55.235-20.42,62.552-48.129
		c-8.02-14.039-13.889-33.662-15.577-61.736c-13.389,9.532-29.252,16.102-46.972,16.102c-17.724,0-33.588-6.57-46.979-16.101
		c-1.687,28.073-7.557,47.696-15.576,61.734C200.974,337.081,226.2,357.507,256.204,357.507z"/>
</g>
<path style="fill:#4595D6;" d="M221.871,347.652l-0.41,154.346h-80.008l0.41-187.159c7.001-1.9,14.361-2.91,21.962-2.91h28.313
	c0.51-0.83,1.02-1.68,1.51-2.55c3.67,13.851,11.801,25.882,22.772,34.453C218.17,345.192,219.981,346.472,221.871,347.652z"/>
<path style="fill:#70CAFC;" d="M370.423,314.839l-0.41,187.159h-79.886l0.41-154.336c13.721-8.611,23.982-22.222,28.223-38.284
	c0.49,0.87,1,1.72,1.51,2.55h28.313C356.184,311.929,363.544,312.939,370.423,314.839z"/>
<path d="M181.357,367.344c-0.65,0-1.31-0.069-1.96-0.199c-0.63-0.13-1.26-0.32-1.87-0.57c-0.6-0.25-1.18-0.559-1.72-0.92
	c-0.55-0.36-1.06-0.78-1.52-1.24c-0.46-0.46-0.88-0.979-1.25-1.52c-0.36-0.551-0.67-1.13-0.92-1.73c-0.25-0.6-0.44-1.229-0.57-1.87
	c-0.13-0.649-0.19-1.3-0.19-1.95c0-0.659,0.06-1.31,0.19-1.96c0.13-0.64,0.32-1.27,0.57-1.869c0.25-0.601,0.56-1.181,0.92-1.73
	c0.37-0.54,0.79-1.06,1.25-1.52c0.46-0.461,0.97-0.881,1.52-1.24c0.54-0.36,1.12-0.67,1.72-0.92c0.61-0.25,1.24-0.44,1.87-0.57
	c1.29-0.26,2.62-0.26,3.91,0c0.64,0.13,1.27,0.32,1.87,0.57c0.61,0.25,1.19,0.56,1.73,0.92c0.55,0.359,1.06,0.779,1.52,1.24
	c0.46,0.46,0.88,0.979,1.24,1.52c0.36,0.55,0.67,1.13,0.92,1.73c0.25,0.6,0.44,1.229,0.57,1.869c0.13,0.65,0.2,1.301,0.2,1.96
	c0,0.65-0.07,1.301-0.2,1.95c-0.13,0.641-0.32,1.27-0.57,1.87c-0.25,0.601-0.56,1.18-0.92,1.73c-0.36,0.54-0.78,1.06-1.24,1.52
	c-0.46,0.46-0.97,0.88-1.52,1.24c-0.54,0.36-1.13,0.67-1.73,0.92s-1.23,0.441-1.87,0.57
	C182.667,367.275,182.007,367.344,181.357,367.344z"/>
<path d="M331.051,468.575c-0.65,0-1.31-0.061-1.95-0.19c-0.64-0.13-1.27-0.32-1.87-0.57c-0.609-0.25-1.189-0.559-1.729-0.92
	c-0.55-0.369-1.06-0.79-1.521-1.25c-0.46-0.46-0.88-0.97-1.239-1.52c-0.36-0.54-0.671-1.12-0.921-1.72
	c-0.25-0.61-0.439-1.24-0.569-1.87c-0.13-0.65-0.2-1.31-0.2-1.96s0.07-1.311,0.2-1.95c0.13-0.64,0.319-1.271,0.569-1.87
	c0.25-0.61,0.561-1.191,0.921-1.729c0.359-0.551,0.779-1.061,1.239-1.521c0.46-0.46,0.971-0.88,1.521-1.24
	c0.54-0.359,1.12-0.67,1.729-0.92c0.601-0.25,1.23-0.439,1.87-0.569c1.29-0.261,2.62-0.261,3.91,0c0.63,0.13,1.26,0.319,1.87,0.569
	c0.6,0.25,1.18,0.561,1.72,0.92c0.55,0.36,1.061,0.78,1.521,1.24c0.46,0.46,0.88,0.97,1.25,1.521c0.359,0.539,0.67,1.119,0.92,1.729
	c0.25,0.6,0.439,1.23,0.569,1.87c0.131,0.64,0.19,1.3,0.19,1.95c0,0.649-0.06,1.31-0.19,1.96c-0.13,0.63-0.319,1.26-0.569,1.87
	c-0.25,0.6-0.561,1.18-0.92,1.72c-0.37,0.55-0.79,1.06-1.25,1.52c-0.46,0.46-0.971,0.881-1.521,1.25c-0.54,0.36-1.12,0.67-1.72,0.92
	c-0.61,0.25-1.24,0.441-1.87,0.57C332.361,468.514,331.702,468.575,331.051,468.575z"/>
<path d="M442.633,395.977c0-34.232-18.622-65.788-48.601-82.353c-6.606-3.647-13.633-6.489-20.866-8.437
	c-3.823-1.038-7.717-1.823-11.654-2.367c-0.164-0.023-0.326-0.051-0.489-0.073c-0.106-0.014-0.213-0.023-0.32-0.037
	c-3.985-0.517-8.033-0.782-12.119-0.782h-22.497c-6.651-12.731-10.857-29.399-12.541-49.643
	c15.732-12.357,28.14-28.31,36.123-43.044c2.328-4.3,4.466-9.609,6.374-15.818c6.042-4.514,11.155-11.616,14.374-20.11
	c4.851-12.806,4.239-25.202-0.821-33.377c2.526,0.185,5.065-0.594,7.073-2.242c2.648-2.173,3.998-5.55,3.583-8.945
	c-0.14-1.483-0.379-9.227-0.59-16.064c-0.948-30.695-1.318-35.509-2.29-38.362c-10.292-30.229-28.855-42.115-42.614-46.764
	c-10.014-3.384-18.849-3.49-23.955-3.122c-4.892-3.258-14.765-9.484-26.242-14.819c-23.697-11.013-42.107-12.577-54.717-4.645
	c-21.772,13.691-35.995,14.99-51.054,16.367c-6.942,0.634-14.12,1.289-21.915,3.168c-12.46,3.004-19.795,18.665-23.081,49.285
	c-2.217,20.664-2.051,44.411-0.74,57.19c0.521,5.078,4.766,8.895,9.783,8.973c-1.749,2.833-2.989,6.2-3.625,9.975
	c-1.205,7.155-0.216,15.459,2.786,23.383c3.218,8.492,8.331,15.593,14.371,20.107c1.908,6.213,4.047,11.522,6.376,15.821
	c7.982,14.735,20.39,30.688,36.124,43.046c-1.684,20.243-5.892,36.91-12.541,49.64h-22.501c-1.043,0-2.085,0.017-3.125,0.051
	c-7.282,0.239-14.483,1.315-21.438,3.203c-7.253,1.954-14.279,4.794-20.888,8.443c-29.976,16.565-48.598,48.121-48.598,82.353v42.96
	l-0.41,62.995c-0.017,2.664,1.029,5.224,2.906,7.114c1.877,1.89,4.431,2.952,7.095,2.952h62.086l228.288,0.001
	c0.007,0,0.013-0.001,0.019-0.001h0.252h62.208c5.498,0,9.965-4.438,10.001-9.936l0.41-62.995c0-0.012-0.002-0.023-0.001-0.035
	c0-0.01,0.001-0.02,0.001-0.03v-43.025H442.633z M422.631,395.977v33.024h-42.456l0.219-99.907c1.342,0.639,2.665,1.318,3.968,2.037
	C407.966,344.176,422.631,369.022,422.631,395.977z M351.327,321.984c0.322,0.012,0.643,0.032,0.964,0.048
	c0.59,0.029,1.178,0.062,1.765,0.105c0.375,0.027,0.749,0.059,1.123,0.092c0.549,0.049,1.096,0.104,1.642,0.165
	c0.359,0.04,0.718,0.079,1.077,0.124c0.681,0.086,1.359,0.183,2.035,0.288c0.157,0.024,0.315,0.045,0.471,0.07l-0.255,116.102
	c0,0.001,0,0.002,0,0.002v0.161l-0.344,52.855h-59.651l0.37-139.042c0.02-0.014,0.038-0.03,0.057-0.044
	c0.161-0.118,0.316-0.243,0.475-0.362c0.567-0.425,1.13-0.855,1.683-1.294c0.25-0.199,0.495-0.404,0.742-0.606
	c0.454-0.371,0.907-0.743,1.351-1.124c0.267-0.229,0.53-0.461,0.793-0.694c0.417-0.367,0.831-0.737,1.239-1.113
	c0.264-0.243,0.526-0.489,0.786-0.736c0.4-0.379,0.794-0.762,1.185-1.15c0.252-0.25,0.504-0.499,0.752-0.752
	c0.398-0.406,0.789-0.818,1.177-1.232c0.226-0.241,0.454-0.48,0.677-0.724c0.43-0.471,0.85-0.951,1.268-1.433
	c0.169-0.195,0.342-0.385,0.508-0.582c0.579-0.683,1.148-1.375,1.702-2.078c0.071-0.09,0.138-0.183,0.208-0.273
	c0.478-0.612,0.948-1.231,1.407-1.858c0.182-0.248,0.356-0.502,0.535-0.753c0.34-0.477,0.677-0.954,1.005-1.439
	c0.198-0.292,0.39-0.589,0.584-0.884c0.297-0.452,0.591-0.906,0.878-1.365c0.197-0.315,0.39-0.631,0.583-0.949
	c0.272-0.45,0.54-0.904,0.803-1.36c0.041-0.072,0.085-0.142,0.126-0.214v93.981c0,5.523,4.478,10.001,10.001,10.001
	c5.523,0,10.001-4.478,10.001-10.001V321.93h7.528C349.501,321.93,350.415,321.951,351.327,321.984z M231.83,363.421
	c0.043,0.015,0.086,0.028,0.129,0.042c0.864,0.296,1.733,0.577,2.608,0.841c0.096,0.029,0.192,0.059,0.288,0.088
	c0.925,0.276,1.855,0.536,2.79,0.775c0.023,0.006,0.046,0.013,0.07,0.019c1.924,0.491,3.869,0.904,5.832,1.241
	c0.24,0.041,0.481,0.076,0.721,0.114c0.705,0.114,1.412,0.22,2.121,0.313c0.329,0.044,0.659,0.083,0.989,0.122
	c0.638,0.076,1.276,0.143,1.917,0.202c0.35,0.032,0.7,0.064,1.051,0.092c0.662,0.052,1.325,0.092,1.989,0.126
	c0.314,0.016,0.627,0.037,0.942,0.049c0.968,0.038,1.938,0.061,2.91,0.061c0.005,0,0.009,0,0.014,0c0.008,0,0.014,0,0.022,0
	c0.031,0,0.061-0.002,0.092-0.002c0.94-0.001,1.878-0.023,2.815-0.059c0.335-0.013,0.668-0.035,1.003-0.053
	c0.64-0.033,1.279-0.071,1.916-0.121c0.372-0.029,0.742-0.063,1.112-0.097c0.617-0.057,1.232-0.122,1.847-0.195
	c0.349-0.041,0.698-0.082,1.045-0.128c0.69-0.091,1.378-0.195,2.064-0.305c0.255-0.041,0.512-0.078,0.766-0.121
	c1.962-0.336,3.908-0.751,5.833-1.241c0.008-0.002,0.017-0.005,0.025-0.007c0.957-0.245,1.909-0.511,2.855-0.794
	c0.068-0.02,0.135-0.042,0.203-0.062c0.903-0.272,1.801-0.562,2.693-0.868l-0.342,128.543h-48.665L231.83,363.421z M153.324,79.483
	c2.283-24.781,6.898-33.908,8.73-35.647c6.202-1.449,12.206-1.998,18.552-2.577c15.962-1.458,34.053-3.111,59.882-19.355
	c11.926-7.5,43.395,7.783,61.927,21.028c2.241,1.605,4.968,2.229,7.673,1.699c0.089-0.017,8.867-1.525,19.06,2.154
	c13.257,4.786,23.04,16.022,29.087,33.399c0.538,4.106,1.118,22.884,1.435,33.118c0.026,0.878,0.053,1.715,0.077,2.513
	l-12.447-4.219l-26.904-30.58c-0.46-0.523-0.974-0.986-1.523-1.396c-0.04-0.03-0.077-0.066-0.118-0.096
	c-0.077-0.056-0.16-0.1-0.239-0.154c-0.833-0.567-1.739-1.016-2.698-1.31c-1.05-0.323-2.153-0.474-3.264-0.434
	c-2.99,0.1-5.778,1.533-7.6,3.907l-22.251,29l-126.754,8.531c-0.002,0-0.003,0-0.005,0.001l-3.633,0.245
	C151.862,108.206,152.054,93.271,153.324,79.483z M180.328,199.716c-2.031-3.75-4.025-9.054-5.768-15.335
	c-0.733-2.646-2.523-4.874-4.948-6.162c-2.523-1.34-6.374-5.285-8.915-11.992c-3.18-8.394-1.857-14.651-0.739-15.954
	c5.898-2.365,6.279-7.746,6.425-11.861l122.171-8.223c1.075-0.073,2.119-0.317,3.096-0.715c1.629-0.663,3.072-1.75,4.165-3.175
	l17.598-22.934l20.633,23.451c1.157,1.314,2.639,2.303,4.297,2.865l7.512,2.546c0.038,1.685,0.076,3.192,0.114,4.474
	c0.169,5.715,0.329,11.115,6.48,13.57c1.119,1.304,2.44,7.562-0.739,15.954c-2.541,6.708-6.392,10.652-8.916,11.992
	c-2.426,1.287-4.216,3.516-4.949,6.163c-1.74,6.279-3.734,11.582-5.766,15.333c-7.471,13.787-19.375,28.846-34.338,39.558
	c-0.119,0.078-0.246,0.14-0.362,0.223c-3.271,2.329-6.579,4.372-9.914,6.134c-0.085,0.045-0.169,0.09-0.254,0.135
	c-0.642,0.336-1.286,0.655-1.93,0.97c-0.337,0.164-0.673,0.327-1.012,0.486c-0.461,0.217-0.923,0.427-1.386,0.634
	c-0.537,0.239-1.076,0.472-1.619,0.698c-0.314,0.132-0.629,0.263-0.943,0.389c-0.727,0.291-1.459,0.571-2.195,0.838
	c-0.162,0.059-0.324,0.121-0.487,0.179c-2.869,1.018-5.806,1.853-8.807,2.476c-0.064,0.013-0.128,0.024-0.192,0.037
	c-0.887,0.181-1.78,0.342-2.678,0.486c-0.223,0.035-0.446,0.067-0.669,0.1c-0.744,0.111-1.493,0.208-2.244,0.292
	c-0.285,0.032-0.57,0.064-0.855,0.092c-0.72,0.071-1.445,0.125-2.171,0.171c-0.281,0.017-0.562,0.04-0.843,0.054
	c-0.986,0.048-1.976,0.078-2.972,0.078c-0.997,0-1.987-0.03-2.973-0.078c-0.282-0.014-0.564-0.037-0.846-0.054
	c-0.725-0.045-1.447-0.1-2.166-0.17c-0.288-0.028-0.577-0.06-0.865-0.092c-0.748-0.084-1.492-0.18-2.233-0.291
	c-0.227-0.034-0.453-0.066-0.68-0.102c-0.889-0.142-1.774-0.302-2.652-0.481c-0.074-0.015-0.147-0.027-0.221-0.043
	c-2.993-0.621-5.924-1.454-8.786-2.469c-0.182-0.064-0.363-0.134-0.545-0.201c-0.715-0.26-1.426-0.531-2.133-0.814
	c-0.333-0.134-0.665-0.272-0.997-0.411c-0.522-0.218-1.041-0.442-1.557-0.671c-0.483-0.215-0.965-0.434-1.446-0.661
	c-0.316-0.148-0.63-0.3-0.943-0.453c-0.666-0.325-1.331-0.655-1.994-1.002c-0.061-0.032-0.121-0.064-0.182-0.096
	c-3.35-1.766-6.672-3.817-9.957-6.157c-0.118-0.084-0.247-0.148-0.368-0.226C199.698,228.559,187.796,213.502,180.328,199.716z
	 M252.477,273.652c1.241,0.056,2.483,0.093,3.729,0.093s2.489-0.037,3.729-0.093c0.161-0.008,0.323-0.013,0.484-0.022
	c11.704-0.598,23.174-3.681,34.281-9.223c2.342,18.118,6.729,33.317,13.273,46.061c-0.066,0.194-0.131,0.39-0.199,0.583
	c-0.139,0.395-0.279,0.788-0.427,1.178c-0.131,0.345-0.269,0.687-0.407,1.029c-0.159,0.395-0.314,0.791-0.482,1.18
	c-0.128,0.299-0.267,0.593-0.401,0.889c-0.368,0.815-0.754,1.62-1.159,2.411c-0.122,0.24-0.24,0.482-0.366,0.72
	c-0.226,0.425-0.462,0.843-0.698,1.26c-0.143,0.252-0.284,0.506-0.431,0.756c-0.244,0.417-0.495,0.828-0.75,1.237
	c-0.148,0.237-0.297,0.473-0.449,0.708c-0.267,0.415-0.537,0.827-0.815,1.234c-0.14,0.205-0.285,0.406-0.427,0.609
	c-1.005,1.428-2.075,2.802-3.206,4.121c-0.143,0.167-0.282,0.336-0.427,0.501c-0.315,0.358-0.639,0.708-0.963,1.058
	c-0.206,0.223-0.413,0.445-0.623,0.665c-0.31,0.324-0.625,0.644-0.943,0.96c-0.241,0.24-0.486,0.476-0.732,0.712
	c-0.307,0.294-0.615,0.589-0.929,0.876c-0.295,0.269-0.597,0.531-0.898,0.794c-0.386,0.337-0.774,0.672-1.169,0.998
	c-0.451,0.372-0.904,0.742-1.368,1.101c-0.289,0.223-0.584,0.438-0.877,0.655c-0.335,0.249-0.671,0.497-1.013,0.739
	c-0.328,0.233-0.66,0.46-0.994,0.685c-0.298,0.201-0.599,0.399-0.901,0.595c-0.424,0.274-0.847,0.549-1.278,0.811
	c-0.013,0.008-0.026,0.016-0.039,0.024c-4.745,2.882-9.946,5.054-15.438,6.392c-0.108,0.026-0.217,0.05-0.326,0.075
	c-0.538,0.127-1.078,0.247-1.62,0.359c-0.212,0.043-0.424,0.083-0.636,0.124c-0.444,0.086-0.888,0.167-1.335,0.241
	c-0.262,0.044-0.525,0.085-0.787,0.125c-0.402,0.061-0.806,0.117-1.211,0.17c-0.289,0.037-0.577,0.074-0.867,0.106
	c-0.389,0.044-0.781,0.081-1.172,0.117c-0.296,0.027-0.591,0.055-0.887,0.077c-0.414,0.031-0.83,0.053-1.246,0.075
	c-0.269,0.014-0.537,0.032-0.807,0.042c-0.635,0.024-1.271,0.036-1.91,0.038c-0.051,0-0.102,0.003-0.154,0.003
	c-0.694,0-1.385-0.015-2.074-0.041c-0.219-0.008-0.437-0.024-0.655-0.034c-0.474-0.024-0.948-0.049-1.419-0.085
	c-0.245-0.019-0.49-0.043-0.734-0.064c-0.449-0.04-0.896-0.083-1.342-0.134c-0.241-0.027-0.48-0.058-0.72-0.089
	c-0.459-0.059-0.917-0.122-1.373-0.192c-0.216-0.033-0.431-0.067-0.646-0.103c-0.499-0.083-0.996-0.173-1.491-0.269
	c-0.165-0.032-0.331-0.063-0.496-0.097c-0.591-0.121-1.178-0.251-1.763-0.39c-0.067-0.016-0.134-0.03-0.201-0.047
	c-4.82-1.172-9.417-2.985-13.678-5.358c-0.001-0.001-0.003-0.002-0.004-0.002c-0.599-0.334-1.191-0.679-1.777-1.034
	c-0.018-0.011-0.036-0.022-0.055-0.033c-0.431-0.262-0.855-0.537-1.279-0.811c-0.323-0.209-0.646-0.423-0.968-0.642
	c-0.332-0.225-0.663-0.45-0.99-0.682c-0.595-0.424-1.191-0.862-1.793-1.326c-0.254-0.196-0.501-0.4-0.751-0.6
	c-0.373-0.3-0.748-0.597-1.113-0.907c-0.055-0.046-0.107-0.095-0.162-0.141c-7.223-6.179-12.761-14.199-15.981-23.091
	c-0.051-0.142-0.105-0.283-0.154-0.426c-0.051-0.146-0.096-0.294-0.146-0.44c6.546-12.744,10.93-27.943,13.272-46.059
	c11.107,5.541,22.579,8.625,34.284,9.223C252.153,273.639,252.315,273.645,252.477,273.652z M187.413,321.93
	c4.028,9.524,9.933,17.95,17.206,24.886c0.21,0.201,0.423,0.4,0.635,0.599c0.372,0.346,0.743,0.693,1.122,1.032
	c0.573,0.515,1.154,1.02,1.744,1.517c0.062,0.052,0.121,0.106,0.183,0.158c0.65,0.545,1.309,1.081,1.978,1.604
	c0.523,0.406,1.047,0.804,1.573,1.192l-0.369,139.077h-20.514l0.382-99.96c0.021-5.524-4.439-10.018-9.963-10.039
	c-0.013,0-0.026,0-0.039,0c-5.505,0-9.979,4.452-10,9.963l-0.382,100.036h-19.495l0.37-169.097c0.15-0.024,0.301-0.044,0.451-0.067
	c0.729-0.114,1.46-0.22,2.193-0.312c0.306-0.039,0.613-0.072,0.919-0.106c0.621-0.07,1.243-0.134,1.867-0.189
	c0.326-0.029,0.652-0.056,0.979-0.081c0.639-0.048,1.28-0.085,1.921-0.116c0.291-0.014,0.581-0.032,0.873-0.043
	c0.923-0.034,1.848-0.056,2.775-0.056L187.413,321.93L187.413,321.93z M89.778,395.977c0-26.955,14.664-51.801,38.269-64.843
	c1.243-0.686,2.506-1.334,3.784-1.947l-0.219,99.815H89.778V395.977z M89.713,449.003h41.855l-0.094,42.993h-42.04L89.713,449.003z
	 M380.036,491.997l0.089-40.682l0.005-2.31l42.435-0.001l-0.28,42.993H380.036z"/>
<g>
</g>
<g>
</g>
<g>
</g>
<g>
</g>
<g>
</g>
<g>
</g>
<g>
</g>
<g>
</g>
<g>
</g>
<g>
</g>
<g>
</g>
<g>
</g>
<g>
</g>
<g>
</g>
<g>
</g>
</svg>
